<?xml version="1.0" standalone="no"?>
<!DOCTYPE svg PUBLIC "-//W3C//DTD SVG 20010904//EN"
 "http://www.w3.org/TR/2001/REC-SVG-20010904/DTD/svg10.dtd">
<svg version="1.0" xmlns="http://www.w3.org/2000/svg"
 width="920.000000pt" height="315.000000pt" viewBox="0 0 920.000000 315.000000"
 preserveAspectRatio="xMidYMid meet">

<g transform="translate(0.000000,315.000000) scale(0.100000,-0.100000)"
fill="#000000" stroke="none">
<path d="M246 2830 c51 -70 146 -178 211 -241 73 -71 199 -179 208 -179 3 0
19 9 37 20 46 28 88 25 136 -9 22 -16 43 -35 47 -41 3 -5 11 -8 16 -4 5 3 8 0
7 -7 -2 -7 2 -14 7 -14 6 -1 23 -7 38 -13 16 -7 33 -12 38 -12 10 0 12 -14 3
-23 -4 -3 -13 0 -21 8 -14 15 -43 21 -43 9 0 -3 5 -14 10 -24 8 -16 15 -18 34
-10 19 7 28 5 38 -7 11 -15 10 -16 -10 -11 l-23 6 21 -33 c12 -19 20 -50 20
-74 0 -24 4 -40 10 -36 5 3 7 12 4 19 -3 7 7 35 21 62 25 47 25 50 8 64 -21
18 -26 60 -6 60 7 0 13 -4 13 -9 0 -5 9 -13 21 -16 23 -8 33 -30 43 -97 7 -43
5 -47 -11 -43 -12 4 -11 2 4 -6 11 -6 23 -23 26 -38 3 -14 11 -48 17 -76 37
-167 39 -454 4 -682 l-16 -112 -63 -61 c-64 -61 -112 -87 -196 -108 -40 -10
-55 -9 -101 7 -30 10 -70 26 -88 36 l-33 17 46 -59 c25 -32 58 -70 74 -86 l29
-27 77 19 c111 29 254 91 402 176 127 73 205 122 175 112 -8 -3 -55 -22 -103
-42 -89 -36 -122 -38 -93 -6 13 14 18 58 24 232 l7 214 73 -1 c64 -2 84 -7
150 -40 93 -45 198 -147 255 -246 26 -45 43 -65 53 -61 8 3 14 9 14 15 0 5 6
6 13 1 6 -4 22 -6 35 -4 23 3 31 -14 10 -22 -7 -2 -28 -3 -47 -1 -40 5 -39 -1
18 -84 106 -156 248 -292 372 -357 83 -43 254 -100 329 -109 l55 -7 -53 20
c-29 11 -89 39 -135 63 -71 38 -82 48 -82 71 -1 15 -11 40 -23 56 -12 17 -22
34 -22 39 0 14 -35 42 -52 42 -9 0 -19 7 -22 16 -5 14 -4 15 9 4 9 -8 15 -8
15 -2 0 6 -4 13 -9 17 -6 3 -46 57 -91 121 -48 68 -85 112 -92 108 -7 -5 -6
-11 4 -18 14 -10 12 -13 -10 -24 -20 -9 -23 -9 -14 0 15 15 16 32 2 23 -14 -9
-8 17 6 30 9 7 -5 33 -48 93 -33 46 -62 81 -65 78 -3 -3 0 -14 8 -23 11 -15
11 -16 -1 -5 -19 16 -37 15 -44 -4 -3 -8 -2 -12 3 -9 5 3 12 1 16 -5 4 -6 10
-8 15 -5 5 3 12 0 16 -6 4 -7 3 -9 -3 -6 -6 4 -16 0 -23 -8 -7 -8 -16 -12 -21
-9 -5 3 -9 0 -9 -6 0 -6 8 -10 17 -8 11 2 22 -6 28 -19 5 -13 13 -23 16 -23 6
0 2 -41 -7 -69 -4 -11 -8 -10 -24 4 -14 13 -17 22 -10 30 13 16 -1 22 -70 31
-51 7 -70 24 -26 24 22 0 36 16 36 41 0 6 -9 7 -20 4 -21 -7 -29 10 -7 18 20
7 -14 57 -68 98 -76 59 -161 105 -237 130 -60 19 -68 24 -54 34 9 7 40 15 70
19 164 19 440 86 546 133 114 50 210 146 225 225 8 43 -19 110 -59 147 -28 26
-26 28 -30 -28 -1 -8 -6 -16 -12 -18 -7 -2 -9 -13 -6 -25 4 -18 3 -19 -17 -8
-28 15 -54 6 -49 -17 2 -10 0 -22 -5 -28 -4 -5 -23 -35 -41 -65 -79 -134 -288
-242 -554 -284 -46 -7 -89 -19 -95 -25 -13 -13 -172 -14 -202 -1 -17 7 -11 12
11 9 3 0 13 8 22 19 15 17 16 37 10 173 -4 85 -14 210 -21 277 -7 68 -10 125
-6 127 18 12 298 -31 464 -70 120 -28 157 -45 199 -89 19 -20 27 -24 23 -12
-6 15 -4 17 13 13 12 -3 20 -1 19 6 -1 7 -1 19 0 27 1 13 2 13 11 0 5 -8 10
-10 10 -4 0 42 -96 74 -352 118 -430 74 -428 74 -513 16 -24 -17 -46 -30 -48
-30 -2 0 -21 14 -42 30 -21 17 -45 28 -52 25 -8 -2 -12 -1 -8 4 7 13 -81 76
-149 107 -34 15 -85 28 -129 33 -68 6 -79 11 -175 74 -100 65 -262 192 -262
205 0 4 -13 16 -28 27 -15 11 -22 13 -16 5z m805 -593 c-16 -16 -20 -5 -8 23
9 22 11 23 14 6 3 -10 0 -23 -6 -29z m969 -867 c0 -5 -4 -10 -10 -10 -5 0 -10
5 -10 10 0 6 5 10 10 10 6 0 10 -4 10 -10z m40 -5 c10 -12 10 -15 -4 -15 -9 0
-16 7 -16 15 0 8 2 15 4 15 2 0 9 -7 16 -15z m-166 -70 c-4 -8 -11 -15 -16
-15 -6 0 -5 6 2 15 7 8 14 15 16 15 2 0 1 -7 -2 -15z m66 -18 c19 -15 25 -73
9 -83 -9 -5 -10 -2 -6 10 4 10 1 19 -8 22 -8 4 -15 11 -15 16 0 6 -10 19 -22
29 l-21 19 24 0 c13 0 31 -6 39 -13z m345 -297 c-3 -5 2 -10 11 -10 10 0 14
-3 11 -7 -4 -3 1 -15 10 -26 17 -19 17 -19 -2 -9 -11 7 -29 19 -40 27 -17 14
-18 17 -5 25 19 12 23 12 15 0z"/>
<path d="M8779 2521 c-36 -25 -116 -72 -178 -104 -90 -47 -121 -59 -165 -60
-60 -3 -168 -52 -292 -133 l-72 -46 -25 -97 c-54 -200 -63 -308 -54 -616 2
-81 -4 -89 -67 -82 -61 6 -104 26 -158 71 -162 137 -177 152 -178 173 0 12 -5
25 -11 29 -8 4 -9 -1 -4 -17 7 -22 5 -21 -25 8 -32 32 -36 59 -5 33 12 -10 15
-10 15 4 0 9 -8 16 -20 16 -11 0 -20 4 -20 9 0 13 -50 64 -57 57 -3 -3 6 -15
20 -27 15 -11 27 -28 27 -37 0 -15 -195 177 -292 289 -30 34 -41 40 -50 31
-20 -20 -32 -13 -13 8 20 22 7 28 -14 8 -11 -11 -11 -9 -1 12 12 23 12 24 -3
11 -10 -8 -17 -9 -17 -3 0 6 4 13 9 17 6 3 3 18 -7 35 -15 27 -15 32 -2 40 27
18 45 7 44 -27 -1 -21 2 -30 10 -27 7 3 24 -12 38 -31 15 -22 29 -32 32 -26 4
6 2 11 -3 11 -6 0 -11 5 -11 10 0 6 -18 36 -41 66 -27 36 -38 61 -34 73 6 20
71 51 105 51 10 0 22 4 25 10 4 6 -6 7 -27 4 -79 -14 -116 -28 -163 -59 -27
-18 -66 -36 -86 -39 -19 -4 -44 -12 -54 -20 -18 -13 -18 -18 -6 -77 8 -37 15
-170 18 -315 5 -225 4 -255 -12 -288 -27 -57 -148 -180 -232 -236 -41 -27 -70
-50 -65 -50 28 0 227 77 301 116 90 47 216 133 208 141 -3 2 -14 0 -25 -6 -26
-14 -64 -15 -43 -2 11 7 12 32 7 136 -4 70 -9 136 -11 148 -2 12 -6 60 -10
107 -6 83 -20 193 -30 238 -3 12 -2 22 2 22 5 0 82 -82 173 -182 374 -414 485
-523 661 -657 152 -115 326 -215 467 -267 65 -25 102 -32 67 -13 -75 41 -122
91 -95 101 5 2 -14 37 -41 78 -234 353 -246 713 -37 1026 82 123 138 155 207
119 28 -14 31 -12 116 45 127 87 308 242 279 239 -5 0 -39 -22 -75 -48z m-596
-1316 c14 3 17 -4 17 -33 l0 -37 -21 25 c-11 14 -25 34 -31 45 -9 17 -9 18 3
9 8 -6 22 -10 32 -9z m57 -82 c0 -7 -4 -13 -10 -13 -5 0 -10 12 -10 28 0 21 2
24 10 12 5 -8 10 -21 10 -27z m61 -60 c13 -15 12 -15 -8 -4 -24 12 -29 21 -14
21 5 0 15 -7 22 -17z"/>
<path d="M8170 1190 c0 -5 5 -10 11 -10 5 0 7 5 4 10 -3 6 -8 10 -11 10 -2 0
-4 -4 -4 -10z"/>
<path d="M5435 2497 c-83 -42 -113 -51 -175 -57 -84 -7 -145 -34 -246 -105
l-61 -44 -7 -113 c-4 -63 -8 -134 -11 -158 -2 -25 -7 -71 -10 -103 -6 -61 -31
-137 -46 -137 -23 0 -80 31 -144 78 -92 66 -244 152 -269 152 -26 0 -175 -85
-291 -165 -49 -34 -100 -65 -112 -69 -34 -11 -54 -118 -59 -321 -8 -294 -33
-535 -56 -535 -5 0 -6 -4 -3 -10 3 -5 2 -10 -4 -10 -5 0 -11 6 -14 13 -3 10
-9 9 -26 0 -11 -7 -29 -13 -38 -12 -13 1 -10 4 7 10 l25 8 -25 -1 c-14 -1 -33
3 -43 7 -10 4 -21 5 -24 1 -4 -3 2 -6 12 -6 14 0 15 -3 5 -15 -9 -11 -7 -22
11 -54 12 -22 27 -37 32 -34 6 3 7 1 3 -5 -7 -11 9 -39 76 -133 42 -60 189
-232 193 -227 2 2 0 22 -5 44 -17 77 -29 342 -32 704 -2 355 -2 366 19 412 51
112 151 227 262 300 40 26 79 48 86 48 7 0 46 -22 86 -49 78 -51 179 -150 218
-213 26 -43 36 -47 51 -18 6 11 15 18 21 15 5 -4 9 -1 9 4 0 6 12 11 26 11 17
0 24 -4 21 -13 -3 -7 1 -24 9 -38 10 -17 13 -70 14 -189 1 -205 15 -434 34
-562 14 -97 14 -99 -14 -220 -30 -131 -97 -347 -136 -438 l-24 -55 36 40 c94
105 228 343 289 514 l26 75 -27 59 c-55 124 -84 377 -84 743 0 376 51 633 146
727 33 34 62 41 120 33 32 -4 55 -1 77 10 56 29 209 158 181 152 -5 -1 -54
-24 -109 -51z m-570 -767 c3 -5 1 -10 -4 -10 -6 0 -11 5 -11 10 0 6 2 10 4 10
3 0 8 -4 11 -10z m-37 -22 c-3 -7 -12 -14 -21 -16 -12 -2 -15 1 -11 12 7 19
38 22 32 4z m-995 -813 c-3 -9 -8 -14 -10 -11 -3 3 -2 9 2 15 9 16 15 13 8 -4z
m47 -20 c0 -8 -7 -15 -15 -15 -16 0 -20 12 -8 23 11 12 23 8 23 -8z m76 -99
c-8 -20 -21 -36 -28 -36 -9 0 -10 2 -2 8 7 4 18 27 25 52 7 25 14 38 16 28 2
-9 -3 -32 -11 -52z m84 -125 c-1 -17 -30 36 -30 53 1 16 5 12 15 -13 8 -18 15
-36 15 -40z"/>
<path d="M3620 2427 c0 -3 20 -15 44 -27 41 -19 98 -75 154 -149 13 -17 28
-29 33 -25 5 3 7 10 3 15 -3 5 -9 7 -14 4 -5 -3 -12 0 -16 6 -5 8 1 10 19 7
17 -3 28 0 31 9 3 8 2 11 -3 8 -5 -3 -12 -1 -16 4 -3 6 -12 8 -20 4 -10 -3
-15 2 -15 16 0 12 5 21 10 21 6 0 10 -5 10 -10 0 -6 6 -10 13 -8 14 3 59 -20
69 -36 4 -6 10 -8 13 -4 9 9 -117 95 -188 128 -60 29 -127 48 -127 37z"/>
<path d="M4160 2373 c-49 -18 -105 -50 -161 -94 -30 -24 -36 -34 -34 -61 6
-59 16 -182 21 -253 6 -73 21 -135 32 -135 4 0 21 15 38 34 31 33 31 35 36
167 7 167 29 267 68 309 16 18 34 29 40 25 5 -3 10 1 10 9 0 9 -1 16 -2 15 -2
0 -23 -8 -48 -16z"/>
<path d="M4688 2375 c24 -7 52 -21 63 -31 15 -13 19 -14 19 -3 0 8 3 10 8 4 4
-5 12 -11 17 -11 6 -1 26 -5 45 -9 32 -6 33 -6 15 8 -34 24 -134 57 -173 56
l-37 0 43 -14z"/>
<path d="M7843 2276 c26 -7 56 -21 67 -31 11 -10 20 -13 20 -7 0 7 10 12 23
13 47 2 -57 38 -108 38 l-50 0 48 -13z"/>
<path d="M3886 2232 c-2 -4 -1 -14 3 -21 6 -9 10 -7 14 8 5 20 -7 29 -17 13z"/>
<path d="M6698 2220 c61 -7 89 -22 120 -63 13 -18 14 -18 28 0 11 14 13 15 14
3 0 -13 1 -13 10 0 5 9 5 19 -1 26 -19 23 -102 44 -168 43 l-66 -2 63 -7z"/>
<path d="M3830 2201 c0 -5 5 -13 10 -16 6 -3 10 -2 10 4 0 5 -4 13 -10 16 -5
3 -10 2 -10 -4z"/>
<path d="M2866 2165 c-164 -42 -312 -153 -373 -280 -18 -38 -33 -77 -33 -85 0
-9 -18 -41 -40 -70 -55 -74 -66 -113 -51 -190 7 -33 10 -64 7 -68 -2 -4 2 -16
10 -27 13 -17 14 -13 15 41 2 104 2 103 124 151 114 44 500 232 492 239 -2 2
-88 -30 -191 -71 -177 -71 -266 -98 -266 -79 0 4 8 17 18 28 11 12 24 46 31
77 49 229 329 363 579 276 74 -26 165 -87 202 -136 12 -15 20 -20 19 -11 -3
28 1 38 17 44 12 4 15 2 10 -9 -4 -12 -2 -13 13 -6 12 7 22 6 31 -2 8 -7 1 4
-16 24 -39 49 -112 96 -203 132 -67 26 -91 30 -206 33 -94 3 -147 -1 -189 -11z"/>
<path d="M5855 2158 c-85 -29 -212 -115 -267 -179 -68 -79 -162 -258 -208
-395 -22 -65 -40 -129 -40 -140 0 -17 -10 -24 -46 -34 -30 -9 -43 -17 -40 -26
8 -20 -10 -26 -27 -10 -8 9 -19 11 -27 6 -31 -19 41 -96 165 -180 53 -36 149
-79 177 -80 16 0 16 3 -2 33 -58 98 -63 253 -14 438 14 57 28 105 29 107 2 2
45 -12 97 -31 182 -69 546 -177 594 -177 6 0 29 18 50 40 33 35 44 40 69 36
27 -5 28 -4 13 8 -10 7 -14 17 -10 21 4 4 -11 4 -33 -1 -80 -18 -194 -9 -329
24 -124 31 -422 118 -439 129 -5 3 -2 12 6 21 7 10 24 44 36 77 49 132 136
249 207 275 57 22 141 -4 202 -63 29 -28 32 -29 32 -10 0 14 6 20 18 19 35 -2
16 26 -47 69 -36 25 -74 45 -85 45 -12 -1 -48 -10 -81 -22z"/>
<path d="M1092 2130 c-12 -32 -11 -34 4 -19 9 9 14 25 12 35 -3 14 -7 10 -16
-16z"/>
<path d="M1040 2119 c0 -5 5 -7 10 -4 6 3 10 8 10 11 0 2 -4 4 -10 4 -5 0 -10
-5 -10 -11z"/>
<path d="M6083 2059 c-18 -18 12 -58 37 -52 14 4 20 0 20 -10 0 -20 19 -32 31
-20 6 6 -5 26 -27 51 -38 45 -44 48 -61 31z"/>
<path d="M6270 2027 c0 -4 9 -16 20 -27 11 -11 20 -26 20 -34 0 -8 8 -17 18
-19 12 -3 11 -5 -6 -6 -14 -1 -20 -5 -17 -12 4 -6 -2 -5 -14 2 -14 10 -17 15
-8 21 9 6 9 8 0 8 -6 0 -14 -4 -17 -8 -7 -12 23 -52 39 -52 8 0 29 -14 46 -31
28 -27 35 -30 57 -20 24 11 24 12 7 31 -13 14 -22 17 -30 10 -9 -8 -18 -6 -29
5 -22 22 -20 28 4 15 39 -21 21 14 -35 70 -30 30 -55 51 -55 47z"/>
<path d="M6265 1990 c-3 -5 1 -10 10 -10 9 0 13 5 10 10 -3 6 -8 10 -10 10 -2
0 -7 -4 -10 -10z"/>
<path d="M6226 1953 c-6 -14 -5 -15 5 -6 7 7 10 15 7 18 -3 3 -9 -2 -12 -12z"/>
<path d="M3654 1920 c5 -23 4 -23 -8 -7 -11 14 -15 15 -19 3 -3 -8 1 -17 9
-20 22 -9 17 -35 -6 -29 -13 3 -20 0 -20 -8 0 -11 -3 -11 -11 1 -7 11 -8 2 -2
-30 15 -86 7 -184 -21 -245 -36 -80 -140 -180 -236 -228 -77 -39 -228 -77
-305 -77 -146 0 -422 99 -384 137 7 7 6 20 -4 39 -18 35 -11 91 12 97 11 3 9
5 -6 6 -12 0 -24 5 -28 10 -3 6 3 8 13 6 19 -3 19 -2 -1 38 -20 41 -20 41 -29
17 -14 -36 -12 -164 2 -191 7 -13 10 -21 6 -17 -7 6 -146 -58 -146 -67 0 -12
140 -94 201 -118 126 -50 192 -61 359 -61 127 1 169 5 235 23 343 93 548 347
481 596 -21 80 -76 175 -76 133 0 -10 -3 -9 -11 2 -8 12 -10 10 -5 -10z
m-1024 -462 c0 -19 -16 -5 -17 14 -2 18 0 20 7 8 5 -8 10 -18 10 -22z"/>
<path d="M5180 1907 c0 -9 141 -97 155 -97 31 0 14 21 -32 40 -27 11 -65 29
-85 40 -21 11 -38 19 -38 17z"/>
<path d="M6313 1801 c12 -22 25 -37 30 -34 19 11 -14 73 -39 73 -8 0 -5 -14 9
-39z"/>
<path d="M7450 1806 c0 -8 5 -18 10 -21 6 -3 10 1 10 9 0 8 -4 18 -10 21 -5 3
-10 -1 -10 -9z"/>
<path d="M6480 1794 c0 -5 7 -19 15 -31 10 -14 12 -24 5 -28 -6 -4 -5 -12 4
-21 9 -8 13 -25 10 -41 -6 -32 -14 -43 -14 -20 0 10 -8 17 -21 17 -13 0 -18 4
-13 13 6 9 4 9 -8 -1 -9 -7 -24 -9 -34 -5 -16 6 -17 5 -6 -9 7 -9 12 -20 11
-24 -4 -23 2 -26 15 -8 14 19 14 19 13 -1 -1 -11 -11 -28 -21 -38 -19 -17 -19
-20 -4 -67 16 -49 16 -50 -16 -137 -48 -130 -121 -234 -203 -284 -57 -36 -29
-33 49 4 154 74 304 189 408 312 82 95 95 119 40 72 -25 -21 -54 -37 -68 -37
-25 0 -25 0 -6 21 18 20 18 22 -33 122 -50 98 -123 211 -123 191z"/>
<path d="M6452 1756 c10 -7 15 -16 11 -19 -3 -4 -1 -7 5 -7 7 0 12 4 12 8 0
12 -22 32 -34 32 -6 0 -3 -7 6 -14z"/>
<path d="M6368 1690 c17 -39 32 -52 32 -27 0 7 -7 22 -15 33 -8 12 -11 24 -8
28 3 3 -1 6 -10 6 -14 0 -14 -4 1 -40z"/>
<path d="M7615 1658 c1 -12 7 -24 13 -26 16 -5 15 23 -1 37 -11 8 -13 6 -12
-11z"/>
<path d="M6390 1624 c0 -8 5 -12 10 -9 6 3 10 10 10 16 0 5 -4 9 -10 9 -5 0
-10 -7 -10 -16z"/>
<path d="M7650 1630 c0 -5 5 -10 11 -10 5 0 7 5 4 10 -3 6 -8 10 -11 10 -2 0
-4 -4 -4 -10z"/>
<path d="M2685 1521 c-3 -6 5 -16 19 -22 14 -7 27 -19 29 -28 4 -14 5 -14 6 0
1 21 -45 64 -54 50z"/>
<path d="M1880 1480 c19 -13 30 -13 30 0 0 6 -10 10 -22 10 -19 0 -20 -2 -8
-10z"/>
<path d="M2440 901 c0 -5 5 -13 10 -16 6 -3 10 -2 10 4 0 5 -4 13 -10 16 -5 3
-10 2 -10 -4z"/>
</g>
</svg>
